<svg
      width="80"
      height="56"
      viewBox="0 0 80 56"
      fill="none"
      xmlns="http://www.w3.org/2000/svg"
    >
      <path d="M64.8454 0H53.056V2.94736H64.8454V0Z" fill="#9EB5E1" />
      <path
        d="M70.7405 2.94647H41.2668V5.89384H70.7405V2.94647Z"
        fill="#9EB5E1"
      />
      <path
        d="M41.262 5.89453H35.3673V8.84189H41.262V5.89453Z"
        fill="#9EB5E1"
      />
      <path
        d="M44.2142 5.89453H41.2668V8.84189H44.2142V5.89453Z"
        fill="#254EFB"
      />
      <path
        d="M73.6837 5.89453H44.21V8.84189H73.6837V5.89453Z"
        fill="#9EB5E1"
      />
      <path
        d="M47.1577 8.8443H32.4209V11.7917H47.1577V8.8443Z"
        fill="#9EB5E1"
      />
      <path
        d="M53.0512 8.8443H47.1564V11.7917H53.0512V8.8443Z"
        fill="#254EFB"
      />
      <path d="M58.9507 8.8443H53.056V11.7917H58.9507V8.8443Z" fill="#2B83F6" />
      <path
        d="M61.8929 8.8443H58.9456V11.7917H61.8929V8.8443Z"
        fill="#254EFB"
      />
      <path
        d="M67.7901 8.8443H61.8953V11.7917H67.7901V8.8443Z"
        fill="#9EB5E1"
      />
      <path
        d="M70.7356 8.8443H67.7882V11.7917H70.7356V8.8443Z"
        fill="#254EFB"
      />
      <path
        d="M76.6294 8.8443H70.7347V11.7917H76.6294V8.8443Z"
        fill="#9EB5E1"
      />
      <path
        d="M35.3725 11.7891H29.4778V14.7365H35.3725V11.7891Z"
        fill="#9EB5E1"
      />
      <path
        d="M41.262 11.7891H35.3673V14.7365H41.262V11.7891Z"
        fill="#254EFB"
      />
      <path
        d="M44.2142 11.7891H41.2668V14.7365H44.2142V11.7891Z"
        fill="#9EB5E1"
      />
      <path
        d="M50.1047 11.7891H44.21V14.7365H50.1047V11.7891Z"
        fill="#254EFB"
      />
      <path
        d="M53.0536 11.7891H50.1062V14.7365H53.0536V11.7891Z"
        fill="#2B83F6"
      />
      <path
        d="M67.7928 11.7891H53.056V14.7365H67.7928V11.7891Z"
        fill="#254EFB"
      />
      <path
        d="M73.6829 11.7891H67.7882V14.7365H73.6829V11.7891Z"
        fill="#9EB5E1"
      />
      <path
        d="M76.6351 11.7891H73.6877V14.7365H76.6351V11.7891Z"
        fill="#254EFB"
      />
      <path
        d="M79.5816 11.7891H76.6342V14.7365H79.5816V11.7891Z"
        fill="#9EB5E1"
      />
      <path
        d="M32.4194 14.7389H26.5247V17.6863H32.4194V14.7389Z"
        fill="#9EB5E1"
      />
      <path
        d="M38.3156 14.7389H32.4209V17.6863H38.3156V14.7389Z"
        fill="#254EFB"
      />
      <path
        d="M41.2611 14.7389H38.3138V17.6863H41.2611V14.7389Z"
        fill="#9EB5E1"
      />
      <path
        d="M47.1616 14.7389H41.2668V17.6863H47.1616V14.7389Z"
        fill="#254EFB"
      />
      <path
        d="M50.1038 14.7389H47.1564V17.6863H50.1038V14.7389Z"
        fill="#9EB5E1"
      />
      <path
        d="M58.9483 14.7389H50.1062V17.6863H58.9483V14.7389Z"
        fill="#254EFB"
      />
      <path
        d="M61.8929 14.7389H58.9456V17.6863H61.8929V14.7389Z"
        fill="#9EB5E1"
      />
      <path
        d="M64.8427 14.7389H61.8953V17.6863H64.8427V14.7389Z"
        fill="#2B83F6"
      />
      <path
        d="M70.7398 14.7389H64.8451V17.6863H70.7398V14.7389Z"
        fill="#254EFB"
      />
      <path
        d="M79.5768 14.7389H70.7347V17.6863H79.5768V14.7389Z"
        fill="#9EB5E1"
      />
      <path d="M29.472 17.6837H26.5247V20.631H29.472V17.6837Z" fill="#9EB5E1" />
      <path
        d="M38.3199 17.6837H29.4778V20.631H38.3199V17.6837Z"
        fill="#254EFB"
      />
      <path
        d="M41.2611 17.6837H38.3138V20.631H41.2611V17.6837Z"
        fill="#9EB5E1"
      />
      <path
        d="M47.1616 17.6837H41.2668V20.631H47.1616V17.6837Z"
        fill="#254EFB"
      />
      <path
        d="M50.1038 17.6837H47.1564V20.631H50.1038V17.6837Z"
        fill="#9EB5E1"
      />
      <path
        d="M56.0009 17.6837H50.1062V20.631H56.0009V17.6837Z"
        fill="#254EFB"
      />
      <path
        d="M58.9465 17.6837H55.9991V20.631H58.9465V17.6837Z"
        fill="#9EB5E1"
      />
      <path
        d="M76.6297 17.6837H58.9456V20.631H76.6297V17.6837Z"
        fill="#254EFB"
      />
      <path
        d="M79.5816 17.6837H76.6342V20.631H79.5816V17.6837Z"
        fill="#9EB5E1"
      />
      <path
        d="M29.473 20.6334H23.5782V23.5808H29.473V20.6334Z"
        fill="#9EB5E1"
      />
      <path
        d="M35.3725 20.6334H29.4778V23.5808H35.3725V20.6334Z"
        fill="#254EFB"
      />
      <path
        d="M38.3147 20.6334H35.3673V23.5808H38.3147V20.6334Z"
        fill="#9EB5E1"
      />
      <path
        d="M44.2085 20.6334H38.3138V23.5808H44.2085V20.6334Z"
        fill="#254EFB"
      />
      <path
        d="M47.1574 20.6334H44.21V23.5808H47.1574V20.6334Z"
        fill="#9EB5E1"
      />
      <path
        d="M55.9985 20.6334H47.1564V23.5808H55.9985V20.6334Z"
        fill="#254EFB"
      />
      <path
        d="M58.9465 20.6334H55.9991V23.5808H58.9465V20.6334Z"
        fill="#9EB5E1"
      />
      <path
        d="M64.8403 20.6334H58.9456V23.5808H64.8403V20.6334Z"
        fill="#254EFB"
      />
      <path
        d="M76.6351 20.6334H73.6877V23.5808H76.6351V20.6334Z"
        fill="#254EFB"
      />
      <path
        d="M79.5816 20.6334H76.6342V23.5808H79.5816V20.6334Z"
        fill="#9EB5E1"
      />
      <path
        d="M26.5256 23.5782H23.5782V26.5256H26.5256V23.5782Z"
        fill="#9EB5E1"
      />
      <path
        d="M35.3667 23.5782H26.5247V26.5256H35.3667V23.5782Z"
        fill="#254EFB"
      />
      <path
        d="M38.3147 23.5782H35.3673V26.5256H38.3147V23.5782Z"
        fill="#9EB5E1"
      />
      <path
        d="M44.2085 23.5782H38.3138V26.5256H44.2085V23.5782Z"
        fill="#254EFB"
      />
      <path
        d="M47.1574 23.5782H44.21V26.5256H47.1574V23.5782Z"
        fill="#9EB5E1"
      />
      <path
        d="M61.8932 23.5782H47.1564V26.5256H61.8932V23.5782Z"
        fill="#254EFB"
      />
      <path
        d="M76.6351 23.5782H73.6877V26.5256H76.6351V23.5782Z"
        fill="#9EB5E1"
      />
      <path
        d="M23.5791 26.528H20.6318V29.4754H23.5791V26.528Z"
        fill="#9EB5E1"
      />
      <path d="M61.894 26.528H23.5782V29.4754H61.894V26.528Z" fill="#254EFB" />
      <path
        d="M23.5791 29.4728H20.6318V32.4201H23.5791V29.4728Z"
        fill="#9EB5E1"
      />
      <path
        d="M61.894 29.4728H23.5782V32.4201H61.894V29.4728Z"
        fill="#254EFB"
      />
      <path
        d="M23.5834 32.4225H17.6887V35.3699H23.5834V32.4225Z"
        fill="#9EB5E1"
      />
      <path
        d="M61.894 32.4225H23.5782V35.3699H61.894V32.4225Z"
        fill="#254EFB"
      />
      <path
        d="M20.636 35.3673H17.6887V38.3147H20.636V35.3673Z"
        fill="#9EB5E1"
      />
      <path
        d="M61.8949 35.3673H20.6318V38.3147H61.8949V35.3673Z"
        fill="#254EFB"
      />
      <path
        d="M17.6829 38.3171H14.7355V41.2644H17.6829V38.3171Z"
        fill="#9EB5E1"
      />
      <path
        d="M61.8991 38.3171H17.6887V41.2644H61.8991V38.3171Z"
        fill="#254EFB"
      />
      <path
        d="M17.6829 41.2619H14.7355V44.2093H17.6829V41.2619Z"
        fill="#9EB5E1"
      />
      <path
        d="M61.8991 41.2619H17.6887V44.2093H61.8991V41.2619Z"
        fill="#254EFB"
      />
      <path
        d="M14.7365 44.2117H11.7891V47.159H14.7365V44.2117Z"
        fill="#9EB5E1"
      />
      <path
        d="M35.3671 44.2117H14.7355V47.159H35.3671V44.2117Z"
        fill="#254EFB"
      />
      <path
        d="M38.3147 44.2117H35.3673V47.159H38.3147V44.2117Z"
        fill="#2B83F6"
      />
      <path
        d="M44.2085 44.2117H38.3138V47.159H44.2085V44.2117Z"
        fill="#254EFB"
      />
      <path d="M47.1574 44.2117H44.21V47.159H47.1574V44.2117Z" fill="#2B83F6" />
      <path
        d="M55.9985 44.2117H47.1564V47.159H55.9985V44.2117Z"
        fill="#254EFB"
      />
      <path
        d="M58.9465 44.2117H55.9991V47.159H58.9465V44.2117Z"
        fill="#2B83F6"
      />
      <path
        d="M61.8929 44.2117H58.9456V47.159H61.8929V44.2117Z"
        fill="#254EFB"
      />
      <path
        d="M14.7365 47.1564H11.7891V50.1038H14.7365V47.1564Z"
        fill="#9EB5E1"
      />
      <path
        d="M26.525 47.1564H14.7355V50.1038H26.525V47.1564Z"
        fill="#254EFB"
      />
      <path
        d="M29.472 47.1564H26.5247V50.1038H29.472V47.1564Z"
        fill="#9EB5E1"
      />
      <path
        d="M35.3725 47.1564H29.4778V50.1038H35.3725V47.1564Z"
        fill="#254EFB"
      />
      <path
        d="M38.3147 47.1564H35.3673V50.1038H38.3147V47.1564Z"
        fill="#2B83F6"
      />
      <path
        d="M47.1559 47.1564H38.3138V50.1038H47.1559V47.1564Z"
        fill="#254EFB"
      />
      <path
        d="M50.1038 47.1564H47.1564V50.1038H50.1038V47.1564Z"
        fill="#2B83F6"
      />
      <path
        d="M58.9483 47.1564H50.1062V50.1038H58.9483V47.1564Z"
        fill="#254EFB"
      />
      <path
        d="M61.8929 47.1564H58.9456V50.1038H61.8929V47.1564Z"
        fill="#2B83F6"
      />
      <path
        d="M64.8427 47.1564H61.8953V50.1038H64.8427V47.1564Z"
        fill="#254EFB"
      />
      <path d="M2.94736 50.1046H0V53.0519H2.94736V50.1046Z" fill="#9EB5E1" />
      <path d="M11.79 50.1046H8.84265V53.0519H11.79V50.1046Z" fill="#9EB5E1" />
      <path
        d="M23.5786 50.1046H11.7891V53.0519H23.5786V50.1046Z"
        fill="#254EFB"
      />
      <path
        d="M26.5256 50.1046H23.5782V53.0519H26.5256V50.1046Z"
        fill="#9EB5E1"
      />
      <path
        d="M38.3141 50.1046H26.5247V53.0519H38.3141V50.1046Z"
        fill="#254EFB"
      />
      <path
        d="M41.2611 50.1046H38.3138V53.0519H41.2611V50.1046Z"
        fill="#2B83F6"
      />
      <path
        d="M50.1089 50.1046H41.2668V53.0519H50.1089V50.1046Z"
        fill="#254EFB"
      />
      <path
        d="M56.0009 50.1046H50.1062V53.0519H56.0009V50.1046Z"
        fill="#2B83F6"
      />
      <path
        d="M70.736 50.1046H55.9991V53.0519H70.736V50.1046Z"
        fill="#254EFB"
      />
      <path d="M8.8412 53.0527H2.94647V56H8.8412V53.0527Z" fill="#9EB5E1" />
      <path d="M73.6846 53.0527H8.84265V56H73.6846V53.0527Z" fill="#254EFB" />
      <path d="M79.5816 53.0527H76.6342V56H79.5816V53.0527Z" fill="#254EFB" />
    </svg>